<svg xmlns="http://www.w3.org/2000/svg" viewBox="0 0 200 200" width="64" height="64">
  <circle cx="100" cy="100" r="94" fill="#1a3a6b"/>
  <g transform="translate(100,100) scale(1.45) translate(-50,-50)">
    <polygon points="50,7 87.24,28.5 87.24,71.5 50,93 12.76,71.5 12.76,28.5"
      fill="none" stroke="#f4f0e8" stroke-width="6" stroke-linejoin="round" stroke-linecap="round"/>
    <line x1="50"    y1="7"    x2="50"    y2="28"   stroke="#f4f0e8" stroke-width="6" stroke-linecap="round"/>
    <line x1="87.24" y1="71.5" x2="69.05" y2="61"   stroke="#f4f0e8" stroke-width="6" stroke-linecap="round"/>
    <line x1="12.76" y1="71.5" x2="30.95" y2="61"   stroke="#f4f0e8" stroke-width="6" stroke-linecap="round"/>
    <polygon points="50,28 69.05,39 69.05,61 50,72 30.95,61 30.95,39"
      fill="none" stroke="#f4f0e8" stroke-width="6" stroke-linejoin="round" stroke-linecap="round"/>
    <line x1="50" y1="50" x2="69.05" y2="39" stroke="#f4f0e8" stroke-width="6" stroke-linecap="round"/>
    <line x1="50" y1="50" x2="50"    y2="72" stroke="#f4f0e8" stroke-width="6" stroke-linecap="round"/>
    <line x1="50" y1="50" x2="30.95" y2="39" stroke="#f4f0e8" stroke-width="6" stroke-linecap="round"/>
  </g>
  <circle cx="100" cy="100" r="94" fill="none" stroke="#f4f0e8" stroke-width="2"/>
</svg>
